<svg xmlns="http://www.w3.org/2000/svg" viewBox="0 0 100 100" width="100%" height="100%">
  <defs>
    <g id="blue-lines">
      <path d="M 35 85 V 25 C 35 22 37 20 40 20 H 60 C 63 20 65 22 65 25 V 85" fill="none" stroke-linecap="round"/>
      <path d="M 43 32 H 57 M 43 45 H 57 M 43 58 H 57 M 43 71 H 57" fill="none" stroke-linecap="round"/>
      <path d="M 65 65 H 75 C 78 65 80 67 80 70 V 85" fill="none" stroke-linecap="round"/>
      <path d="M 12 85 H 88" fill="none" stroke-linecap="round"/>
    </g>
    <g id="red-lines">
      <path d="M 20 85 V 50 C 20 47 22 45 25 45 H 35" fill="none" stroke-linecap="round"/>
      <line x1="27" y1="56" x2="27" y2="72" fill="none" stroke-linecap="round"/>
    </g>
    <filter id="blur-wide">
      <feGaussianBlur stdDeviation="4"/>
    </filter>
    <filter id="blur-narrow">
      <feGaussianBlur stdDeviation="1.5"/>
    </filter>
  </defs>
  <rect width="100" height="100" rx="22" fill="#1C1F2E"/>
  <use href="#red-lines" stroke="#FF4B4B" stroke-width="4" filter="url(#blur-wide)" opacity="0.8"/>
  <use href="#red-lines" stroke="#FF4B4B" stroke-width="4" filter="url(#blur-narrow)"/>
  <use href="#red-lines" stroke="#FFD6D6" stroke-width="1.5"/>
  <use href="#blue-lines" stroke="#7880FF" stroke-width="4" filter="url(#blur-wide)" opacity="0.8"/>
  <use href="#blue-lines" stroke="#7880FF" stroke-width="4" filter="url(#blur-narrow)"/>
  <use href="#blue-lines" stroke="#E8E9FF" stroke-width="1.5"/>
</svg>